# xmcd
#
# Track frame offsets: 
#        150
#        10322
#        24095
#        39967
#        47782
#        64765
#        73715
#        80710
#        97240
#        107500
#        121435
#        136695
#        145592
#        162447
#        174977
#        184180
#        200052
#
# Disc length: 2813 seconds
#
# Revision: 11
# Processed by: cddbd v1.5.2PL0 Copyright (c) Steve Scherf et al.
# Submitted via: ExactAudioCopyFreeDBPlugin 1.0
#
DISCID=e70afb11
DTITLE=Mississippi John Hurt - The Complete Studio Recordings
DYEAR=2000
DGENRE=Blues
TTITLE0=Poor Boy, Long Ways from Home
TTITLE1=Boys You're Welcome
TTITLE2=Joe Turner Blues
TTITLE3=First Shot Missed Him
TTITLE4=Farther Along
TTITLE5=Funky Butt
TTITLE6=Spider, Spider
TTITLE7=Waiting for You
TTITLE8=Shortnin' Bread
TTITLE9=Trouble, I've Had it All My Days
TTITLE10=Let the Mermaids Flirt with Me
TTITLE11=Good Morning, Carrie
TTITLE12=Nobody Cares for Me
TTITLE13=All Night Long
TTITLE14=Hey, Honey, Right Away
TTITLE15=You've Got to Die
TTITLE16=Goodnight Irene
EXTD=YEAR: 2001
EXTT0=
EXTT1=
EXTT2=
EXTT3=
EXTT4=
EXTT5=
EXTT6=
EXTT7=
EXTT8=
EXTT9=
EXTT10=
EXTT11=
EXTT12=
EXTT13=
EXTT14=
EXTT15=
EXTT16=
PLAYORDER=
